<?xml version="1.0" encoding="UTF-8" standalone="no"?>
<!-- Created with Inkscape (http://www.inkscape.org/) -->

<svg
   xmlns:dc="http://purl.org/dc/elements/1.1/"
   xmlns:cc="http://creativecommons.org/ns#"
   xmlns:rdf="http://www.w3.org/1999/02/22-rdf-syntax-ns#"
   xmlns:svg="http://www.w3.org/2000/svg"
   xmlns="http://www.w3.org/2000/svg"
   xmlns:sodipodi="http://sodipodi.sourceforge.net/DTD/sodipodi-0.dtd"
   xmlns:inkscape="http://www.inkscape.org/namespaces/inkscape"
   width="64"
   height="64"
   viewBox="0 0 16.933333 16.933333"
   version="1.1"
   id="svg8"
   inkscape:version="0.92.3 (2405546, 2018-03-11)"
   sodipodi:docname="title_icon.svg">
  <defs
     id="defs2" />
  <sodipodi:namedview
     id="base"
     pagecolor="#ffffff"
     bordercolor="#666666"
     borderopacity="1.0"
     inkscape:pageopacity="0.0"
     inkscape:pageshadow="2"
     inkscape:zoom="5.4848405"
     inkscape:cx="1.8337378"
     inkscape:cy="34.315503"
     inkscape:document-units="mm"
     inkscape:current-layer="layer1"
     showgrid="false"
     inkscape:window-width="1366"
     inkscape:window-height="713"
     inkscape:window-x="0"
     inkscape:window-y="0"
     inkscape:window-maximized="1"
     units="px" />
  <metadata
     id="metadata5">
    <rdf:RDF>
      <cc:Work
         rdf:about="">
        <dc:format>image/svg+xml</dc:format>
        <dc:type
           rdf:resource="http://purl.org/dc/dcmitype/StillImage" />
        <dc:title />
      </cc:Work>
    </rdf:RDF>
  </metadata>
  <g
     inkscape:label="Ebene 1"
     inkscape:groupmode="layer"
     id="layer1"
     transform="translate(0,-280.06667)">
    <g
       id="g2078"
       transform="matrix(1.0738777,0,0,2.168407,-1.0408869,-365.17972)">
      <path
         inkscape:connector-curvature="0"
         id="path3014-1-2"
         d="M 1.0301695,300.59511 H 16.701162"
         style="fill:#000000;fill-opacity:1;stroke:#000000;stroke-width:1.45000005;stroke-linecap:butt;stroke-linejoin:miter;stroke-miterlimit:4;stroke-dasharray:none;stroke-opacity:1" />
      <path
         inkscape:connector-curvature="0"
         id="path6049-9"
         d="m 15.122067,302.18683 c -0.20089,-0.3139 -0.414538,-0.64521 -0.474802,-0.73627 -0.06029,-0.0911 -0.109582,-0.16934 -0.109582,-0.17402 0,-0.008 0.944827,0.002 1.62414,0.0187 l 0.366112,0.008 -0.512204,0.7271 c -0.281707,0.39991 -0.515862,0.72694 -0.520327,0.72676 -0.0045,-1.8e-4 -0.172483,-0.25716 -0.373347,-0.57106 z"
         style="fill:#000000;fill-opacity:1;fill-rule:nonzero;stroke:none;stroke-width:0.96108651" />
      <path
         inkscape:connector-curvature="0"
         id="path6049-9-3"
         d="m 1.7126142,302.18987 c -0.20089,-0.3139 -0.414538,-0.64521 -0.474802,-0.73627 -0.06029,-0.0911 -0.1095819,-0.16934 -0.1095819,-0.17402 0,-0.008 0.9448269,0.002 1.6241399,0.0187 l 0.366112,0.008 -0.512204,0.7271 c -0.281707,0.39991 -0.515862,0.72694 -0.520327,0.72676 -0.0045,-1.8e-4 -0.172483,-0.25716 -0.373347,-0.57106 z"
         style="fill:#000000;fill-opacity:1;fill-rule:nonzero;stroke:none;stroke-width:0.96108651" />
    </g>
  </g>
</svg>
